<?xml version="1.0" encoding="utf-8"?>
<!-- Generator: Adobe Illustrator 22.0.1, SVG Export Plug-In . SVG Version: 6.00 Build 0)  -->
<svg version="1.1" xmlns="http://www.w3.org/2000/svg" xmlns:xlink="http://www.w3.org/1999/xlink" x="0px" y="0px"
	 viewBox="0 0 200.4 81.6" style="enable-background:new 0 0 200.4 81.6;" xml:space="preserve">
<style type="text/css">
	.st0{display:none;}
	.st1{display:inline;fill:#7540EE;}
	.st2{display:inline;}
	.st3{display:inline;clip-path:url(#SVGID_2_);fill:none;stroke:#ECA778;stroke-width:2;stroke-miterlimit:10;}
	.st4{display:inline;clip-path:url(#SVGID_2_);fill:none;stroke:#E17639;stroke-width:2;stroke-miterlimit:10;}
	.st5{display:inline;clip-path:url(#SVGID_4_);fill:none;stroke:#ECA778;stroke-width:2;stroke-miterlimit:10;}
	.st6{display:inline;clip-path:url(#SVGID_6_);}
	.st7{fill:#FFFFFF;}
	.st8{font-family:'TTDrugs-Light';}
	.st9{font-size:14px;}
	.st10{fill:none;stroke:#FFFFFF;stroke-width:0.28;stroke-miterlimit:10;}
	.st11{clip-path:url(#SVGID_8_);fill:none;stroke:#E17639;stroke-width:2;stroke-miterlimit:10;}
	.st12{clip-path:url(#SVGID_10_);}
	.st13{display:none;fill:#7540EE;}
	.st14{clip-path:url(#SVGID_12_);fill:none;stroke:#ECA778;stroke-width:2;stroke-miterlimit:10;}
	.st15{clip-path:url(#SVGID_14_);}
</style>
<g id="Calque_2" class="st0">
	<rect x="-20.5" y="-35.3" class="st1" width="404" height="705"/>
</g>
<g id="Calque_1" class="st0">
	<g>
		<defs>
			<rect id="SVGID_1_" x="-11.5" y="-14.3" width="375" height="667"/>
		</defs>
		<clipPath id="SVGID_2_" class="st2">
			<use xlink:href="#SVGID_1_"  style="overflow:visible;"/>
		</clipPath>
		<path class="st3" d="M-5.2,52.8c-10.1,3.1,38.4,3.7,145.4,1.8l0,0c8.2-0.1,14.8-6.9,14.8-15.1c0-8.2-6.6-14.8-14.8-14.8H37.3
			C21.5,24.7,7.2,34,0.7,48.4C-0.2,50.4-2.2,51.9-5.2,52.8z"/>
		<path class="st4" d="M360.8,241.8c4.5,2.9-16.6,3.6-63.4,2.1l0,0c-8.3-0.3-14.9-7.1-14.9-15.4c0-8.2,6.6-14.8,14.8-14.8
			c0,0,0,0,0,0l37.8,0c11.5,0,21.1,8.9,21.9,20.4C357.4,237.8,358.6,240.4,360.8,241.8z"/>
		<path class="st3" d="M-6,198c-3.6,2.9,12.9,3.6,49.6,2.2l0,0c8.3-0.3,14.9-7.2,14.9-15.5c0-8.2-6.6-14.8-14.8-14.8c0,0,0,0,0,0
			l-24.8,0c-11.6,0-21.2,9-22,20.5C-3.2,194.1-4.2,196.6-6,198z"/>
		<path class="st3" d="M-9.8,531.5c-4.9,3.2,18.2,4,69.3,2.3l0,0c9.1-0.3,16.2-7.7,16.2-16.8c0-8.9-7.3-16.2-16.2-16.2c0,0,0,0,0,0
			l-43.3,0c-11.9,0-21.6,9.4-22,21.3C-5.9,526.6-7.3,529.8-9.8,531.5z"/>
		<path class="st4" d="M361.2,125.9c11.3,2.3-44.4,2.4-167,0.3v0c-8.1-0.1-14.6-6.8-14.6-14.9c0-8.1,6.5-14.6,14.6-14.6l0,0h136.3
			c11.7,0,21.3,9.1,22,20.7C352.6,121.9,355.6,124.8,361.2,125.9z"/>
	</g>
	<g>
		<defs>
			<rect id="SVGID_3_" x="14.2" y="-16.2" width="375" height="667"/>
		</defs>
		<clipPath id="SVGID_4_" class="st2">
			<use xlink:href="#SVGID_3_"  style="overflow:visible;"/>
		</clipPath>
		<path class="st5" d="M20.5,51c-10.1,3.1,38.4,3.7,145.4,1.8v0c8.2-0.1,14.8-6.9,14.8-15.1c0-8.2-6.6-14.8-14.8-14.8H63
			c-15.8,0-30.1,9.3-36.5,23.7C25.6,48.5,23.6,50,20.5,51z"/>
	</g>
	<g>
		<defs>
			<rect id="SVGID_5_" x="43.2" y="31.8" width="133" height="14"/>
		</defs>
		<clipPath id="SVGID_6_" class="st2">
			<use xlink:href="#SVGID_5_"  style="overflow:visible;"/>
		</clipPath>
		<g class="st6">
			<text transform="matrix(1 0 0 1 43.2391 42.8498)"><tspan x="0" y="0" class="st7 st8 st9">Bonjou</tspan><tspan x="48.2" y="0" class="st7 st8 st9">r</tspan><tspan x="53" y="0" class="st7 st8 st9">, Quentin</tspan><tspan x="115.5" y="0" class="st7 st8 st9">?</tspan></text>
		</g>
		<g class="st6">
			<text transform="matrix(1 0 0 1 43.2391 42.8498)"><tspan x="0" y="0" class="st10 st8 st9">Bonjou</tspan><tspan x="48.2" y="0" class="st10 st8 st9">r</tspan><tspan x="53" y="0" class="st10 st8 st9">, Quentin</tspan><tspan x="115.5" y="0" class="st10 st8 st9">?</tspan></text>
		</g>
	</g>
	<g class="st2">
		<defs>
			<rect id="SVGID_7_" x="-174" y="-91" width="375" height="667"/>
		</defs>
		<clipPath id="SVGID_8_">
			<use xlink:href="#SVGID_7_"  style="overflow:visible;"/>
		</clipPath>
		<path class="st11" d="M198.6,49.2c11.3,2.3-44.4,2.4-167,0.3v0C23.5,49.3,17,42.7,17,34.6C17,26.5,23.5,20,31.6,20l0,0h136.3
			c11.7,0,21.3,9.1,22,20.7C190.1,45.2,193,48,198.6,49.2z"/>
	</g>
	<g class="st2">
		<defs>
			<rect id="SVGID_9_" x="22" y="29" width="177" height="14"/>
		</defs>
		<clipPath id="SVGID_10_">
			<use xlink:href="#SVGID_9_"  style="overflow:visible;"/>
		</clipPath>
		<g class="st12">
			<text transform="matrix(1 0 0 1 22 40)"><tspan x="0" y="0" class="st7 st8 st9">C’est quoi une </tspan><tspan x="99" y="0" class="st7 st8 st9">t</tspan><tspan x="104.8" y="0" class="st7 st8 st9">omat</tspan><tspan x="140.4" y="0" class="st7 st8 st9">e</tspan></text>
		</g>
		<g class="st12">
			<text transform="matrix(1 0 0 1 170.8198 40)" class="st7 st8 st9">?</text>
		</g>
		<g class="st12">
			<text transform="matrix(1 0 0 1 22 40)"><tspan x="0" y="0" class="st10 st8 st9">C’est quoi une </tspan><tspan x="99" y="0" class="st10 st8 st9">t</tspan><tspan x="104.8" y="0" class="st10 st8 st9">omat</tspan><tspan x="140.4" y="0" class="st10 st8 st9">e</tspan></text>
		</g>
		<g class="st12">
			<text transform="matrix(1 0 0 1 170.8198 40)" class="st10 st8 st9">?</text>
		</g>
	</g>
</g>
<g id="Calque_3">
	<rect x="-3" y="-8" class="st13" width="375" height="667"/>
	<g>
		<defs>
			<rect id="SVGID_11_" x="-3" y="-8" width="375" height="667"/>
		</defs>
		<clipPath id="SVGID_12_">
			<use xlink:href="#SVGID_11_"  style="overflow:visible;"/>
		</clipPath>
		<path class="st14" d="M3.2,59.1c-10.1,3.1,38.4,3.7,145.4,1.8v0c8.2-0.1,14.8-6.9,14.8-15.1c0-8.2-6.6-14.8-14.8-14.8H45.7
			C30,31,15.7,40.3,9.2,54.7C8.3,56.7,6.3,58.2,3.2,59.1z"/>
	</g>
	<g>
		<defs>
			<rect id="SVGID_13_" x="26" y="40" width="133" height="14"/>
		</defs>
		<clipPath id="SVGID_14_">
			<use xlink:href="#SVGID_13_"  style="overflow:visible;"/>
		</clipPath>
		<g class="st15">
			<text transform="matrix(1 0 0 1 26 51)"><tspan x="0" y="0" class="st7 st8 st9">Bonjou</tspan><tspan x="48.2" y="0" class="st7 st8 st9">r</tspan><tspan x="53" y="0" class="st7 st8 st9">, Quentin</tspan><tspan x="115.5" y="0" class="st7 st8 st9">?</tspan></text>
		</g>
		<g class="st15">
			<text transform="matrix(1 0 0 1 26 51)"><tspan x="0" y="0" class="st10 st8 st9">Bonjou</tspan><tspan x="48.2" y="0" class="st10 st8 st9">r</tspan><tspan x="53" y="0" class="st10 st8 st9">, Quentin</tspan><tspan x="115.5" y="0" class="st10 st8 st9">?</tspan></text>
		</g>
	</g>
</g>
</svg>
