<?xml version="1.0" encoding="utf-8"?>
<!-- Generator: Adobe Illustrator 22.0.1, SVG Export Plug-In . SVG Version: 6.00 Build 0)  -->
<svg version="1.1" xmlns="http://www.w3.org/2000/svg" xmlns:xlink="http://www.w3.org/1999/xlink" x="0px" y="0px"
	 viewBox="0 0 133.5 153.1" style="enable-background:new 0 0 133.5 153.1;" xml:space="preserve">
<style type="text/css">
	.st0{display:none;}
	.st1{display:inline;}
	.st2{display:inline;clip-path:url(#SVGID_2_);}
	.st3{clip-path:url(#SVGID_4_);enable-background:new    ;}
	.st4{clip-path:url(#SVGID_6_);}
	.st5{clip-path:url(#SVGID_8_);}
	.st6{clip-path:url(#SVGID_10_);fill:#E0763A;}
	.st7{display:inline;clip-path:url(#SVGID_12_);}
	.st8{clip-path:url(#SVGID_14_);fill:#ECA678;}
	.st9{display:inline;clip-path:url(#SVGID_16_);}
	.st10{clip-path:url(#SVGID_18_);fill:#FFFFFF;}
	.st11{display:inline;clip-path:url(#SVGID_20_);}
	.st12{clip-path:url(#SVGID_22_);fill:#FFFFFF;}
	.st13{display:inline;clip-path:url(#SVGID_24_);fill:none;stroke:#DF763A;stroke-miterlimit:10;}
	.st14{display:inline;clip-path:url(#SVGID_26_);}
	.st15{clip-path:url(#SVGID_28_);fill:#FFFFFF;}
	.st16{display:inline;clip-path:url(#SVGID_30_);fill:none;stroke:#DF763A;stroke-miterlimit:10;}
	.st17{display:inline;clip-path:url(#SVGID_32_);}
	.st18{clip-path:url(#SVGID_34_);}
	.st19{display:inline;clip-path:url(#SVGID_36_);}
	.st20{clip-path:url(#SVGID_38_);}
	.st21{display:inline;clip-path:url(#SVGID_40_);}
	.st22{clip-path:url(#SVGID_42_);fill:#E07539;}
	.st23{display:inline;clip-path:url(#SVGID_44_);}
	.st24{clip-path:url(#SVGID_46_);}
	.st25{clip-path:url(#SVGID_48_);}
	.st26{clip-path:url(#SVGID_50_);}
	.st27{clip-path:url(#SVGID_52_);}
	.st28{clip-path:url(#SVGID_54_);}
	.st29{display:inline;clip-path:url(#SVGID_56_);}
	.st30{clip-path:url(#SVGID_58_);fill:#DF763A;}
	.st31{display:inline;clip-path:url(#SVGID_60_);}
	.st32{clip-path:url(#SVGID_62_);fill:#DF763A;}
	.st33{display:inline;clip-path:url(#SVGID_64_);}
	.st34{clip-path:url(#SVGID_66_);fill:#DF763A;}
	.st35{display:inline;clip-path:url(#SVGID_68_);}
	.st36{clip-path:url(#SVGID_70_);fill:#DF763A;}
	.st37{display:inline;clip-path:url(#SVGID_72_);}
	.st38{clip-path:url(#SVGID_74_);fill:#DF763A;}
	.st39{display:inline;clip-path:url(#SVGID_76_);}
	.st40{clip-path:url(#SVGID_78_);fill:#DF763A;}
	.st41{clip-path:url(#SVGID_80_);}
	.st42{clip-path:url(#SVGID_82_);}
	.st43{clip-path:url(#SVGID_84_);}
	.st44{clip-path:url(#SVGID_86_);}
</style>
<g id="Calque_1">
	<g class="st0">
		<defs>
			<rect id="SVGID_1_" x="25.9" y="26.9" width="79.1" height="79.1"/>
		</defs>
		<clipPath id="SVGID_2_" class="st1">
			<use xlink:href="#SVGID_1_"  style="overflow:visible;"/>
		</clipPath>
		<g class="st2">
			<defs>
				<rect id="SVGID_3_" x="-123.1" y="-163.6" width="375" height="667"/>
			</defs>
			<clipPath id="SVGID_4_">
				<use xlink:href="#SVGID_3_"  style="overflow:visible;"/>
			</clipPath>
			<g class="st3">
				<g>
					<defs>
						<rect id="SVGID_5_" x="25.9" y="26.4" width="80" height="80"/>
					</defs>
					<clipPath id="SVGID_6_">
						<use xlink:href="#SVGID_5_"  style="overflow:visible;"/>
					</clipPath>
					<g class="st4">
						<defs>
							<path id="SVGID_7_" d="M65.4,106c-5.3,0-10.5-1-15.4-3.1c-4.7-2-8.9-4.8-12.6-8.5c-3.6-3.6-6.5-7.9-8.5-12.6
								c-2.1-4.9-3.1-10.1-3.1-15.4c0-5.3,1-10.5,3.1-15.4c2-4.7,4.8-8.9,8.5-12.6C41.1,34.8,45.3,32,50,30
								c4.9-2.1,10.1-3.1,15.4-3.1c5.3,0,10.5,1,15.4,3.1c4.7,2,8.9,4.8,12.6,8.5c3.6,3.6,6.5,7.9,8.5,12.6
								c2.1,4.9,3.1,10.1,3.1,15.4c0,5.3-1,10.5-3.1,15.4c-2,4.7-4.8,8.9-8.5,12.6c-3.6,3.6-7.9,6.5-12.6,8.5
								C76,105,70.8,106,65.4,106"/>
						</defs>
						<clipPath id="SVGID_8_">
							<use xlink:href="#SVGID_7_"  style="overflow:visible;"/>
						</clipPath>
						<g class="st5">
							<defs>
								<rect id="SVGID_9_" x="25.9" y="26.4" width="80" height="80"/>
							</defs>
							<clipPath id="SVGID_10_">
								<use xlink:href="#SVGID_9_"  style="overflow:visible;"/>
							</clipPath>
							<rect x="20.9" y="21.9" class="st6" width="89.1" height="89.1"/>
						</g>
					</g>
				</g>
			</g>
		</g>
	</g>
	<g class="st0">
		<defs>
			<path id="SVGID_11_" d="M65.9,97.1c-3.9,0-7.6-0.7-11.2-2.2c-3.7-1.5-7-3.7-9.8-6.6c-4.1-4.1-7.1-8.6-8.9-13.5
				C33.7,69,33,62.7,34.1,56c1-6,3-10.6,6-13.7c2.6-2.7,6-4.2,9.7-4.2c3.3,0,6.7,1.2,9.6,3.3c1.7,1.3,3.8,1.9,6,1.9
				c2.2,0,4.3-0.7,6.1-2c2.8-2,6.1-3.2,9.2-3.2c3.6,0,6.9,1.4,9.6,4.1c3,3.1,5.1,7.7,6.3,13.6c1.3,6.8,0.9,13.2-1.2,19
				c-1.7,4.9-4.6,9.4-8.6,13.4c-2.8,2.8-6.1,5-9.8,6.5C73.5,96.4,69.7,97.1,65.9,97.1"/>
		</defs>
		<clipPath id="SVGID_12_" class="st1">
			<use xlink:href="#SVGID_11_"  style="overflow:visible;"/>
		</clipPath>
		<g class="st7">
			<defs>
				<rect id="SVGID_13_" x="-123.1" y="-163.6" width="375" height="667"/>
			</defs>
			<clipPath id="SVGID_14_">
				<use xlink:href="#SVGID_13_"  style="overflow:visible;"/>
			</clipPath>
			<rect x="28.6" y="33.2" class="st8" width="73.7" height="69"/>
		</g>
	</g>
	<g class="st0">
		<defs>
			<path id="SVGID_15_" d="M49.6,38.8c3.2,0,6.5,1.2,9.2,3.2c1.9,1.4,4.1,2.1,6.3,2.1c2.3,0,4.5-0.7,6.5-2.1
				c2.6-1.9,5.7-3.1,8.9-3.1c6.4,0,12.9,4.8,15.3,17.3c2.8,14.5-2.6,24.8-9.6,31.9c-5.6,5.7-13,8.5-20.5,8.5c-7.5,0-15-2.9-20.6-8.6
				C38,80.7,32.3,70.3,34.6,56.1C36.5,43.6,43.1,38.8,49.6,38.8 M49.6,37.6c-3.9,0-7.4,1.5-10.1,4.3c-1.5,1.5-2.8,3.5-3.8,5.7
				c-1.1,2.4-1.9,5.2-2.4,8.3c-1.1,6.8-0.5,13.2,1.8,19.1c1.9,4.9,4.9,9.5,9.1,13.7c2.9,2.9,6.3,5.2,10,6.7
				c3.6,1.5,7.5,2.3,11.4,2.3c3.9,0,7.7-0.7,11.4-2.2c3.7-1.5,7.1-3.8,10-6.7c4-4.1,7-8.7,8.7-13.6c2.1-5.9,2.5-12.4,1.2-19.3
				c-1.2-6.1-3.3-10.8-6.4-13.9c-2.8-2.8-6.3-4.3-10-4.3c-1.7,0-3.3,0.3-5,0.9c-1.6,0.6-3.1,1.4-4.6,2.4c-1.7,1.2-3.7,1.9-5.8,1.9
				c-2,0-4-0.6-5.6-1.8C56.6,38.8,53,37.6,49.6,37.6"/>
		</defs>
		<clipPath id="SVGID_16_" class="st1">
			<use xlink:href="#SVGID_15_"  style="overflow:visible;"/>
		</clipPath>
		<g class="st9">
			<defs>
				<rect id="SVGID_17_" x="-123.1" y="-163.6" width="375" height="667"/>
			</defs>
			<clipPath id="SVGID_18_">
				<use xlink:href="#SVGID_17_"  style="overflow:visible;"/>
			</clipPath>
			<rect x="27.9" y="32.6" class="st10" width="74.9" height="70.2"/>
		</g>
	</g>
	<g class="st0">
		<defs>
			<path id="SVGID_19_" d="M60.1,59.6c0,4.4-3.6,8-8,8c-4.4,0-8-3.6-8-8c0-4.4,3.6-8,8-8C56.5,51.6,60.1,55.2,60.1,59.6"/>
		</defs>
		<clipPath id="SVGID_20_" class="st1">
			<use xlink:href="#SVGID_19_"  style="overflow:visible;"/>
		</clipPath>
		<g class="st11">
			<defs>
				<rect id="SVGID_21_" x="-123.1" y="-163.6" width="375" height="667"/>
			</defs>
			<clipPath id="SVGID_22_">
				<use xlink:href="#SVGID_21_"  style="overflow:visible;"/>
			</clipPath>
			<rect x="39.1" y="46.6" class="st12" width="26" height="26"/>
		</g>
	</g>
	<g class="st0">
		<defs>
			<rect id="SVGID_23_" x="-123.1" y="-163.6" width="375" height="667"/>
		</defs>
		<clipPath id="SVGID_24_" class="st1">
			<use xlink:href="#SVGID_23_"  style="overflow:visible;"/>
		</clipPath>
		<circle class="st13" cx="52.1" cy="59.6" r="8"/>
	</g>
	<g class="st0">
		<defs>
			<path id="SVGID_25_" d="M70.8,59.6c0,4.4,3.6,8,8,8c4.4,0,8-3.6,8-8c0-4.4-3.6-8-8-8C74.4,51.6,70.8,55.2,70.8,59.6"/>
		</defs>
		<clipPath id="SVGID_26_" class="st1">
			<use xlink:href="#SVGID_25_"  style="overflow:visible;"/>
		</clipPath>
		<g class="st14">
			<defs>
				<rect id="SVGID_27_" x="-123.1" y="-163.6" width="375" height="667"/>
			</defs>
			<clipPath id="SVGID_28_">
				<use xlink:href="#SVGID_27_"  style="overflow:visible;"/>
			</clipPath>
			<rect x="65.8" y="46.6" class="st15" width="26" height="26"/>
		</g>
	</g>
	<g class="st0">
		<defs>
			<rect id="SVGID_29_" x="-123.1" y="-163.6" width="375" height="667"/>
		</defs>
		<clipPath id="SVGID_30_" class="st1">
			<use xlink:href="#SVGID_29_"  style="overflow:visible;"/>
		</clipPath>
		<circle class="st16" cx="78.8" cy="59.6" r="8"/>
	</g>
	<g class="st0">
		<defs>
			<path id="SVGID_31_" d="M78.8,71.1c-6.4,0-11.5-5.2-11.5-11.5c0-6.4,5.2-11.5,11.5-11.5s11.5,5.2,11.5,11.5
				C90.4,66,85.2,71.1,78.8,71.1 M78.8,48.8c-5.9,0-10.8,4.8-10.8,10.8c0,5.9,4.8,10.8,10.8,10.8c5.9,0,10.8-4.8,10.8-10.8
				C89.6,53.7,84.8,48.8,78.8,48.8"/>
		</defs>
		<clipPath id="SVGID_32_" class="st1">
			<use xlink:href="#SVGID_31_"  style="overflow:visible;"/>
		</clipPath>
		<g class="st17">
			<defs>
				<rect id="SVGID_33_" x="-123.1" y="-163.6" width="375" height="667"/>
			</defs>
			<clipPath id="SVGID_34_">
				<use xlink:href="#SVGID_33_"  style="overflow:visible;"/>
			</clipPath>
			<rect x="62.3" y="43.1" class="st18" width="33.1" height="33.1"/>
		</g>
	</g>
	<g class="st0">
		<defs>
			<path id="SVGID_35_" d="M52.4,71.1c-6.4,0-11.5-5.2-11.5-11.5c0-6.4,5.2-11.5,11.5-11.5s11.5,5.2,11.5,11.5
				C63.9,66,58.7,71.1,52.4,71.1 M52.4,48.8c-5.9,0-10.8,4.8-10.8,10.8c0,5.9,4.8,10.8,10.8,10.8c5.9,0,10.8-4.8,10.8-10.8
				C63.2,53.7,58.3,48.8,52.4,48.8"/>
		</defs>
		<clipPath id="SVGID_36_" class="st1">
			<use xlink:href="#SVGID_35_"  style="overflow:visible;"/>
		</clipPath>
		<g class="st19">
			<defs>
				<rect id="SVGID_37_" x="-123.1" y="-163.6" width="375" height="667"/>
			</defs>
			<clipPath id="SVGID_38_">
				<use xlink:href="#SVGID_37_"  style="overflow:visible;"/>
			</clipPath>
			<rect x="35.8" y="43.1" class="st20" width="33.1" height="33.1"/>
		</g>
	</g>
	<g class="st0">
		<defs>
			<path id="SVGID_39_" d="M65.9,81.9c0,0,3.4-4.9,3.9-9c0,0,0-0.1,0-0.1c0-0.7-0.7-1.3-1.6-1.3l-2.3-1.6l-2.3,1.6
				c-0.9,0-1.6,0.6-1.6,1.3c0,0,0,0.1,0,0.1C62.5,77,65.9,81.9,65.9,81.9"/>
		</defs>
		<clipPath id="SVGID_40_" class="st1">
			<use xlink:href="#SVGID_39_"  style="overflow:visible;"/>
		</clipPath>
		<g class="st21">
			<defs>
				<rect id="SVGID_41_" x="-123.1" y="-163.6" width="375" height="667"/>
			</defs>
			<clipPath id="SVGID_42_">
				<use xlink:href="#SVGID_41_"  style="overflow:visible;"/>
			</clipPath>
			<rect x="57" y="64.9" class="st22" width="17.9" height="22"/>
		</g>
	</g>
	<g class="st0">
		<defs>
			<path id="SVGID_43_" d="M67.7,57.4c-0.6-0.6-1.3-1-2-0.9c-1.2,0-2.1,0.9-2.1,0.9L63,56.8c0,0,1.2-1.2,2.7-1.2
				c0.9,0,1.8,0.4,2.6,1.2L67.7,57.4z"/>
		</defs>
		<clipPath id="SVGID_44_" class="st1">
			<use xlink:href="#SVGID_43_"  style="overflow:visible;"/>
		</clipPath>
		<g class="st23">
			<defs>
				<rect id="SVGID_45_" x="-123.1" y="-163.6" width="375" height="667"/>
			</defs>
			<clipPath id="SVGID_46_">
				<use xlink:href="#SVGID_45_"  style="overflow:visible;"/>
			</clipPath>
			<rect x="58" y="50.7" class="st24" width="15.2" height="11.7"/>
		</g>
	</g>
	<g>
		<defs>
			<path id="SVGID_47_" d="M47,56.9c0,1.4,1.1,2.6,2.4,2.6c1.3,0,2.4-1.1,2.4-2.6c0-1.4-1.1-2.5-2.4-2.6c-1-0.1-0.2,2.6-0.4,2.2
				C47.8,54.7,47,56,47,56.9"/>
		</defs>
		<clipPath id="SVGID_48_">
			<use xlink:href="#SVGID_47_"  style="overflow:visible;"/>
		</clipPath>
		<g class="st25">
			<defs>
				<rect id="SVGID_49_" x="-47.7" y="-67.5" width="207.7" height="369.3"/>
			</defs>
			<clipPath id="SVGID_50_">
				<use xlink:href="#SVGID_49_"  style="overflow:visible;"/>
			</clipPath>
			<rect x="44.3" y="51.5" class="st26" width="10.3" height="10.7"/>
		</g>
		<g class="st25">
			<defs>
				<path id="SVGID_51_" d="M67.9-4.7c0,1.4,1.1,2.6,2.4,2.6c1.3,0,2.4-1.1,2.4-2.6c0-1.4-1.1-2.5-2.4-2.6c-1-0.1-0.2,2.6-0.4,2.2
					C68.6-6.8,67.9-5.5,67.9-4.7"/>
			</defs>
			<clipPath id="SVGID_52_">
				<use xlink:href="#SVGID_51_"  style="overflow:visible;"/>
			</clipPath>
			<g class="st27">
				<defs>
					<rect id="SVGID_53_" x="-26.9" y="-129" width="207.7" height="369.3"/>
				</defs>
				<clipPath id="SVGID_54_">
					<use xlink:href="#SVGID_53_"  style="overflow:visible;"/>
				</clipPath>
				<rect x="65.1" y="-10" class="st28" width="10.3" height="10.7"/>
			</g>
		</g>
	</g>
	<g class="st0">
		<defs>
			<path id="SVGID_55_" d="M45.6,74.6c0,0.6-0.5,1.1-1.1,1.1c-0.6,0-1.1-0.5-1.1-1.1c0-0.6,0.5-1.1,1.1-1.1
				C45.1,73.5,45.6,74,45.6,74.6"/>
		</defs>
		<clipPath id="SVGID_56_" class="st1">
			<use xlink:href="#SVGID_55_"  style="overflow:visible;"/>
		</clipPath>
		<g class="st29">
			<defs>
				<rect id="SVGID_57_" x="-123.1" y="-163.6" width="375" height="667"/>
			</defs>
			<clipPath id="SVGID_58_">
				<use xlink:href="#SVGID_57_"  style="overflow:visible;"/>
			</clipPath>
			<rect x="38.3" y="68.5" class="st30" width="12.3" height="12.3"/>
		</g>
	</g>
	<g class="st0">
		<defs>
			<path id="SVGID_59_" d="M50.2,76.9c0,0.6-0.5,1.1-1.1,1.1c-0.6,0-1.1-0.5-1.1-1.1c0-0.6,0.5-1.1,1.1-1.1
				C49.7,75.7,50.2,76.2,50.2,76.9"/>
		</defs>
		<clipPath id="SVGID_60_" class="st1">
			<use xlink:href="#SVGID_59_"  style="overflow:visible;"/>
		</clipPath>
		<g class="st31">
			<defs>
				<rect id="SVGID_61_" x="-123.1" y="-163.6" width="375" height="667"/>
			</defs>
			<clipPath id="SVGID_62_">
				<use xlink:href="#SVGID_61_"  style="overflow:visible;"/>
			</clipPath>
			<rect x="42.9" y="70.7" class="st32" width="12.3" height="12.3"/>
		</g>
	</g>
	<g class="st0">
		<defs>
			<path id="SVGID_63_" d="M54.5,74.6c0,0.6-0.5,1.1-1.1,1.1s-1.1-0.5-1.1-1.1c0-0.6,0.5-1.1,1.1-1.1S54.5,74,54.5,74.6"/>
		</defs>
		<clipPath id="SVGID_64_" class="st1">
			<use xlink:href="#SVGID_63_"  style="overflow:visible;"/>
		</clipPath>
		<g class="st33">
			<defs>
				<rect id="SVGID_65_" x="-123.1" y="-163.6" width="375" height="667"/>
			</defs>
			<clipPath id="SVGID_66_">
				<use xlink:href="#SVGID_65_"  style="overflow:visible;"/>
			</clipPath>
			<rect x="47.2" y="68.5" class="st34" width="12.3" height="12.3"/>
		</g>
	</g>
	<g class="st0">
		<defs>
			<path id="SVGID_67_" d="M75.3,76c0,0.6-0.5,1.1-1.1,1.1c-0.6,0-1.1-0.5-1.1-1.1c0-0.6,0.5-1.1,1.1-1.1
				C74.8,74.8,75.3,75.3,75.3,76"/>
		</defs>
		<clipPath id="SVGID_68_" class="st1">
			<use xlink:href="#SVGID_67_"  style="overflow:visible;"/>
		</clipPath>
		<g class="st35">
			<defs>
				<rect id="SVGID_69_" x="-123.1" y="-163.6" width="375" height="667"/>
			</defs>
			<clipPath id="SVGID_70_">
				<use xlink:href="#SVGID_69_"  style="overflow:visible;"/>
			</clipPath>
			<rect x="68" y="69.8" class="st36" width="12.3" height="12.3"/>
		</g>
	</g>
	<g class="st0">
		<defs>
			<path id="SVGID_71_" d="M80.1,76.9c0,0.6-0.5,1.1-1.1,1.1c-0.6,0-1.1-0.5-1.1-1.1c0-0.6,0.5-1.1,1.1-1.1
				C79.6,75.7,80.1,76.2,80.1,76.9"/>
		</defs>
		<clipPath id="SVGID_72_" class="st1">
			<use xlink:href="#SVGID_71_"  style="overflow:visible;"/>
		</clipPath>
		<g class="st37">
			<defs>
				<rect id="SVGID_73_" x="-123.1" y="-163.6" width="375" height="667"/>
			</defs>
			<clipPath id="SVGID_74_">
				<use xlink:href="#SVGID_73_"  style="overflow:visible;"/>
			</clipPath>
			<rect x="72.8" y="70.7" class="st38" width="12.3" height="12.3"/>
		</g>
	</g>
	<g class="st0">
		<defs>
			<path id="SVGID_75_" d="M84.2,74.1c0,0.6-0.5,1.1-1.1,1.1c-0.6,0-1.1-0.5-1.1-1.1c0-0.6,0.5-1.1,1.1-1.1
				C83.7,72.9,84.2,73.5,84.2,74.1"/>
		</defs>
		<clipPath id="SVGID_76_" class="st1">
			<use xlink:href="#SVGID_75_"  style="overflow:visible;"/>
		</clipPath>
		<g class="st39">
			<defs>
				<rect id="SVGID_77_" x="-123.1" y="-163.6" width="375" height="667"/>
			</defs>
			<clipPath id="SVGID_78_">
				<use xlink:href="#SVGID_77_"  style="overflow:visible;"/>
			</clipPath>
			<rect x="76.9" y="67.9" class="st40" width="12.3" height="12.3"/>
		</g>
	</g>
	<g>
		<defs>
			<path id="SVGID_79_" d="M73.9,57c0,1.3,0.9,2.4,2.1,2.4c1.2,0,2.2-1,2.3-2.3c0-1.3-0.9-2.3-2.1-2.4c-0.9-0.1-0.2,2.4-0.5,2
				C74.6,55,73.9,56.2,73.9,57"/>
		</defs>
		<clipPath id="SVGID_80_">
			<use xlink:href="#SVGID_79_"  style="overflow:visible;"/>
		</clipPath>
		<g class="st41">
			<defs>
				
					<rect id="SVGID_81_" x="-89.3" y="17.3" transform="matrix(3.541023e-02 -0.9994 0.9994 3.541023e-02 -35.1718 188.8627)" width="339.2" height="190.7"/>
			</defs>
			<clipPath id="SVGID_82_">
				<use xlink:href="#SVGID_81_"  style="overflow:visible;"/>
			</clipPath>
			
				<rect x="71.2" y="52.3" transform="matrix(3.541023e-02 -0.9994 0.9994 3.541023e-02 16.4085 131.0923)" class="st42" width="9.8" height="9.5"/>
		</g>
		<g class="st41">
			<defs>
				<path id="SVGID_83_" d="M95,1.2c0,1.3,0.9,2.4,2.1,2.4c1.2,0,2.2-1,2.3-2.3c0-1.3-0.9-2.3-2.1-2.4c-0.9-0.1-0.2,2.4-0.5,2
					C95.8-0.8,95.1,0.4,95,1.2"/>
			</defs>
			<clipPath id="SVGID_84_">
				<use xlink:href="#SVGID_83_"  style="overflow:visible;"/>
			</clipPath>
			<g class="st43">
				<defs>
					
						<rect id="SVGID_85_" x="-68.2" y="-38.5" transform="matrix(3.541023e-02 -0.9994 0.9994 3.541023e-02 40.9446 156.1694)" width="339.2" height="190.7"/>
				</defs>
				<clipPath id="SVGID_86_">
					<use xlink:href="#SVGID_85_"  style="overflow:visible;"/>
				</clipPath>
				
					<rect x="92.3" y="-3.5" transform="matrix(3.541023e-02 -0.9994 0.9994 3.541023e-02 92.5249 98.399)" class="st44" width="9.8" height="9.5"/>
			</g>
		</g>
	</g>
</g>
<g id="Calque_2">
</g>
</svg>
